<svg width="1399" height="246" viewBox="0 0 1399 246" fill="none" xmlns="http://www.w3.org/2000/svg">
<g filter="url(#filter0_d)">
<path d="M11.8588 228C9.72542 228 7.91209 227.253 6.41875 225.76C4.92542 224.267 4.17875 222.453 4.17875 220.32V12C4.17875 9.65332 4.81875 7.73332 6.09875 6.23999C7.59209 4.74665 9.51209 3.99998 11.8588 3.99998H150.739C153.085 3.99998 155.005 4.74665 156.499 6.23999C157.992 7.73332 158.739 9.65332 158.739 12V34.4C158.739 36.7467 157.992 38.6667 156.499 40.16C155.005 41.44 153.085 42.08 150.739 42.08H48.0188V102.88H144.339C146.685 102.88 148.605 103.627 150.099 105.12C151.592 106.613 152.339 108.533 152.339 110.88V133.28C152.339 135.627 151.592 137.547 150.099 139.04C148.605 140.32 146.685 140.96 144.339 140.96H48.0188V220.32C48.0188 222.667 47.2721 224.587 45.7788 226.08C44.2854 227.36 42.3654 228 40.0188 228H11.8588ZM204.046 228C201.913 228 200.1 227.253 198.606 225.76C197.113 224.267 196.366 222.453 196.366 220.32V12C196.366 9.65332 197.006 7.73332 198.286 6.23999C199.78 4.74665 201.7 3.99998 204.046 3.99998H286.926C312.953 3.99998 333.326 10.08 348.046 22.24C362.98 34.4 370.446 51.68 370.446 74.08C370.446 89.6533 366.606 102.773 358.926 113.44C351.46 123.893 341.006 131.467 327.566 136.16L374.286 217.76C374.926 219.04 375.246 220.213 375.246 221.28C375.246 223.2 374.5 224.8 373.006 226.08C371.726 227.36 370.233 228 368.526 228H339.406C335.993 228 333.326 227.253 331.406 225.76C329.7 224.267 328.1 222.133 326.606 219.36L285.326 143.52H240.846V220.32C240.846 222.453 240.1 224.267 238.606 225.76C237.326 227.253 235.513 228 233.166 228H204.046ZM285.966 107.36C298.766 107.36 308.366 104.48 314.766 98.72C321.38 92.96 324.686 84.64 324.686 73.76C324.686 62.88 321.38 54.4533 314.766 48.48C308.366 42.5067 298.766 39.52 285.966 39.52H240.846V107.36H285.966ZM397.919 228C396.212 228 394.612 227.36 393.119 226.08C391.839 224.8 391.199 223.2 391.199 221.28L391.839 218.4L468.959 12C470.452 6.66666 474.185 3.99998 480.159 3.99998H515.039C520.585 3.99998 524.319 6.66666 526.239 12L603.359 218.4C603.572 219.04 603.679 220 603.679 221.28C603.679 223.2 603.039 224.8 601.759 226.08C600.479 227.36 598.985 228 597.279 228H569.439C566.665 228 564.532 227.36 563.039 226.08C561.545 224.8 560.585 223.413 560.159 221.92L545.119 182.88H450.079L435.039 221.92C433.332 225.973 430.239 228 425.759 228H397.919ZM533.919 146.08L497.439 47.2L461.279 146.08H533.919ZM715.579 231.2C686.139 231.2 663.312 223.627 647.099 208.48C631.099 193.333 622.565 172 621.499 144.48C621.285 138.72 621.179 129.333 621.179 116.32C621.179 103.093 621.285 93.4933 621.499 87.52C622.565 60.2133 631.205 38.9867 647.419 23.84C663.845 8.47999 686.565 0.799988 715.579 0.799988C734.565 0.799988 751.099 4.10666 765.179 10.72C779.259 17.12 790.139 25.9733 797.819 37.28C805.499 48.3733 809.552 60.96 809.979 75.04V75.68C809.979 77.3867 809.232 78.88 807.739 80.16C806.459 81.2267 804.965 81.76 803.259 81.76H772.859C770.299 81.76 768.379 81.2267 767.099 80.16C765.819 79.0933 764.752 77.0667 763.899 74.08C760.485 60.64 754.832 51.2533 746.939 45.92C739.045 40.3733 728.485 37.6 715.259 37.6C684.539 37.6 668.539 54.7733 667.259 89.12C667.045 94.88 666.939 103.733 666.939 115.68C666.939 127.627 667.045 136.693 667.259 142.88C668.539 177.227 684.539 194.4 715.259 194.4C728.485 194.4 739.045 191.627 746.939 186.08C755.045 180.533 760.699 171.147 763.899 157.92C764.539 154.933 765.499 152.907 766.779 151.84C768.272 150.773 770.299 150.24 772.859 150.24H803.259C805.179 150.24 806.779 150.88 808.059 152.16C809.552 153.44 810.192 155.04 809.979 156.96C809.552 171.04 805.499 183.733 797.819 195.04C790.139 206.133 779.259 214.987 765.179 221.6C751.099 228 734.565 231.2 715.579 231.2ZM904.889 228C902.755 228 900.942 227.253 899.449 225.76C897.955 224.267 897.209 222.453 897.209 220.32V43.36H838.009C835.875 43.36 834.062 42.6133 832.569 41.12C831.075 39.6267 830.329 37.8133 830.329 35.68V12C830.329 9.65332 830.969 7.73332 832.249 6.23999C833.742 4.74665 835.662 3.99998 838.009 3.99998H1001.21C1003.56 3.99998 1005.48 4.74665 1006.97 6.23999C1008.46 7.73332 1009.21 9.65332 1009.21 12V35.68C1009.21 37.8133 1008.46 39.6267 1006.97 41.12C1005.48 42.6133 1003.56 43.36 1001.21 43.36H942.329V220.32C942.329 222.453 941.582 224.267 940.089 225.76C938.595 227.253 936.675 228 934.329 228H904.889ZM1004.48 228C1002.77 228 1001.17 227.36 999.681 226.08C998.401 224.8 997.761 223.2 997.761 221.28L998.401 218.4L1075.52 12C1077.01 6.66666 1080.75 3.99998 1086.72 3.99998H1121.6C1127.15 3.99998 1130.88 6.66666 1132.8 12L1209.92 218.4C1210.13 219.04 1210.24 220 1210.24 221.28C1210.24 223.2 1209.6 224.8 1208.32 226.08C1207.04 227.36 1205.55 228 1203.84 228H1176C1173.23 228 1171.09 227.36 1169.6 226.08C1168.11 224.8 1167.15 223.413 1166.72 221.92L1151.68 182.88H1056.64L1041.6 221.92C1039.89 225.973 1036.8 228 1032.32 228H1004.48ZM1140.48 146.08L1104 47.2L1067.84 146.08H1140.48ZM1247.8 228C1245.66 228 1243.85 227.253 1242.36 225.76C1240.86 224.267 1240.12 222.453 1240.12 220.32V11.68C1240.12 9.33332 1240.86 7.51999 1242.36 6.23999C1243.85 4.74665 1245.66 3.99998 1247.8 3.99998H1277.56C1279.9 3.99998 1281.72 4.74665 1283 6.23999C1284.49 7.51999 1285.24 9.33332 1285.24 11.68V189.92H1386.68C1389.02 189.92 1390.94 190.667 1392.44 192.16C1393.93 193.653 1394.68 195.573 1394.68 197.92V220.32C1394.68 222.667 1393.93 224.587 1392.44 226.08C1390.94 227.36 1389.02 228 1386.68 228H1247.8Z" fill="white" fill-opacity="0.03" shape-rendering="crispEdges"/>
</g>
<defs>
<filter id="filter0_d" x="0.178772" y="0.799988" width="1398.5" height="244.4" filterUnits="userSpaceOnUse" color-interpolation-filters="sRGB">
<feFlood flood-opacity="0" result="BackgroundImageFix"/>
<feColorMatrix in="SourceAlpha" type="matrix" values="0 0 0 0 0 0 0 0 0 0 0 0 0 0 0 0 0 0 127 0" result="hardAlpha"/>
<feOffset dy="10"/>
<feGaussianBlur stdDeviation="2"/>
<feComposite in2="hardAlpha" operator="out"/>
<feColorMatrix type="matrix" values="0 0 0 0 0 0 0 0 0 0 0 0 0 0 0 0 0 0 0.21 0"/>
<feBlend mode="normal" in2="BackgroundImageFix" result="effect1_dropShadow"/>
<feBlend mode="normal" in="SourceGraphic" in2="effect1_dropShadow" result="shape"/>
</filter>
</defs>
</svg>
