<svg width="25" height="26" viewBox="0 0 25 26" fill="none" xmlns="http://www.w3.org/2000/svg">
<g clip-path="url(#clip0)">
<path d="M12.3406 0.510208C5.72963 0.510208 0.368408 6.12896 0.368408 13.0602C0.368408 18.604 3.79887 23.3071 8.55841 24.968C9.15709 25.0837 9.37561 24.6962 9.37561 24.3633C9.37561 24.0649 9.36514 23.2758 9.35915 22.229C6.02897 22.9868 5.32551 20.5462 5.32551 20.5462C4.78221 19.0962 3.99643 18.7102 3.99643 18.7102C2.90833 17.9321 4.07726 17.9477 4.07726 17.9477C5.27912 18.0368 5.91073 19.2415 5.91073 19.2415C6.97938 21.1587 8.71407 20.6055 9.39657 20.2837C9.50433 19.4727 9.81415 18.9196 10.1569 18.6055C7.49874 18.2883 4.70288 17.2118 4.70288 12.404C4.70288 11.0337 5.16986 9.91334 5.93617 9.03521C5.81194 8.71803 5.40185 7.44146 6.05292 5.7149C6.05292 5.7149 7.0587 5.3774 9.34568 7.00084C10.3006 6.72271 11.3243 6.58365 12.3436 6.57896C13.3599 6.58521 14.3851 6.72271 15.3415 7.0024C17.627 5.37896 18.6313 5.71646 18.6313 5.71646C19.2838 7.44459 18.8737 8.71959 18.751 9.03678C19.5188 9.9149 19.9813 11.0352 19.9813 12.4055C19.9813 17.2258 17.1825 18.2868 14.5153 18.5977C14.9449 18.9852 15.328 19.7508 15.328 20.9212C15.328 22.5993 15.3131 23.9524 15.3131 24.3633C15.3131 24.6993 15.5286 25.0899 16.1363 24.9665C20.8883 23.304 24.3158 18.6024 24.3158 13.0602C24.3158 6.12896 18.9546 0.510208 12.3406 0.510208Z" fill="white"/>
</g>
<defs>
<clipPath id="clip0">
<rect width="23.9474" height="25" fill="white" transform="translate(0.368408 0.25)"/>
</clipPath>
</defs>
</svg>
