<svg width="24" height="26" viewBox="0 0 24 26" fill="none" xmlns="http://www.w3.org/2000/svg">
<g clip-path="url(#clip0)">
<path d="M1.4967 1.95104C-0.385169 3.99167 -1.53333e-05 6.15938 -1.53333e-05 12.7448C-1.53333e-05 18.2136 -0.914007 23.6959 3.86948 24.9865C5.3632 25.3875 18.5981 25.3875 20.0898 24.9844C22.0815 24.4479 23.7019 22.7615 23.9234 19.8208C23.9543 19.4104 23.9543 6.08646 23.9224 5.66771C23.6869 2.53542 21.84 0.730206 19.4063 0.364581C18.8486 0.280206 18.7368 0.255206 15.8751 0.249998C5.7244 0.255206 3.49929 -0.21667 1.4967 1.95104Z" fill="white"/>
<path d="M11.9717 3.5198C8.34865 3.5198 4.90821 3.18334 3.5941 6.70417C3.0513 8.15833 3.13012 10.0469 3.13012 12.751C3.13012 15.124 3.05728 17.3542 3.5941 18.7969C4.90522 22.3198 8.3736 21.9823 11.9697 21.9823C15.4391 21.9823 19.0162 22.3594 20.3463 18.7969C20.8901 17.3281 20.8103 15.4677 20.8103 12.751C20.8103 9.14479 21.0008 6.81667 19.3255 5.06875C17.6293 3.29792 15.3353 3.5198 11.9677 3.5198H11.9717ZM11.1794 5.18334C18.7368 5.17084 19.6987 4.29375 19.1679 16.4781C18.9793 20.7875 15.8362 20.3146 11.9727 20.3146C4.92817 20.3146 4.72562 20.1042 4.72562 12.7469C4.72562 5.30417 5.28439 5.1875 11.1794 5.18125V5.18334ZM16.6913 6.71563C16.1056 6.71563 15.6306 7.21146 15.6306 7.82292C15.6306 8.43437 16.1056 8.93021 16.6913 8.93021C17.277 8.93021 17.752 8.43437 17.752 7.82292C17.752 7.21146 17.277 6.71563 16.6913 6.71563ZM11.9717 8.01042C9.4642 8.01042 7.43167 10.1333 7.43167 12.751C7.43167 15.3687 9.4642 17.4906 11.9717 17.4906C14.4792 17.4906 16.5107 15.3687 16.5107 12.751C16.5107 10.1333 14.4792 8.01042 11.9717 8.01042ZM11.9717 9.67396C15.8681 9.67396 15.8731 15.8281 11.9717 15.8281C8.07625 15.8281 8.07026 9.67396 11.9717 9.67396Z" fill="black"/>
</g>
<defs>
<clipPath id="clip0">
<rect width="23.9474" height="25" fill="white" transform="translate(0 0.25)"/>
</clipPath>
</defs>
</svg>
