<svg width="119" height="35" viewBox="0 0 119 35" fill="none" xmlns="http://www.w3.org/2000/svg">
<path d="M3.52499 27.7986C3.17638 27.5868 2.77797 27.4809 2.32976 27.4809C1.34308 27.4809 0.849733 28.1418 0.849733 29.4637C0.849733 31.0287 1.34308 31.8112 2.32976 31.8112C2.77797 31.8112 3.17638 31.7347 3.52499 31.5817V27.7986ZM4.38873 32.3466C3.79423 32.5937 3.06122 32.7172 2.1897 32.7172C0.729899 32.7172 0 31.6464 0 29.5048C0 27.528 0.775031 26.5396 2.32509 26.5396C2.7484 26.5396 3.14837 26.6376 3.52499 26.8338V24.3039H4.38873V32.3466Z" fill="white"/>
<path d="M10.3322 26.5396V32.7172H9.46846V26.5396H10.3322ZM10.3322 24.3039V25.3335H9.46846V24.3039H10.3322Z" fill="white"/>
<path d="M18.6941 27.5868C18.3984 27.4927 18.0327 27.4456 17.5969 27.4456C16.5542 27.4456 16.0329 28.1575 16.0329 29.5813C16.0329 31.0443 16.5262 31.7759 17.5129 31.7759C17.9611 31.7759 18.3549 31.67 18.6941 31.4582V27.5868ZM19.5579 32.7172C19.5579 34.2077 18.8062 34.9529 17.3028 34.9529C16.699 34.9529 16.1636 34.8549 15.6967 34.6588V33.7762C16.1729 33.9724 16.7114 34.0704 17.3121 34.0704C18.2335 34.0704 18.6941 33.6193 18.6941 32.7172V32.423C18.3268 32.6192 17.9316 32.7172 17.5082 32.7172C15.9582 32.7172 15.1831 31.6758 15.1831 29.5931C15.1831 27.5574 16.0002 26.5396 17.6343 26.5396C18.2973 26.5396 18.9385 26.6239 19.5579 26.7926V32.7172Z" fill="white"/>
<path d="M25.506 26.5396V32.7172H24.6423V26.5396H25.506ZM25.506 24.3039V25.3335H24.6423V24.3039H25.506Z" fill="white"/>
<path d="M30.5904 25.5394H31.132L31.3187 26.5396H32.6447V27.4221H31.4541V30.9698C31.4541 31.5464 31.6518 31.8347 32.0471 31.8347H32.6447V32.7172H31.823C31.0013 32.7172 30.5904 32.1622 30.5904 31.0522V25.5394Z" fill="white"/>
<path d="M37.0988 30.8522C37.0988 29.5853 37.7618 28.9518 39.0877 28.9518C39.5141 28.9518 39.9406 28.991 40.367 29.0695V28.487C40.367 27.7771 39.9266 27.4221 39.0457 27.4221C38.5415 27.4221 38.0248 27.5202 37.4956 27.7163V26.8338C38.0248 26.6376 38.5415 26.5396 39.0457 26.5396C40.5024 26.5396 41.2307 27.1789 41.2307 28.4576V32.7172H40.7452L40.4464 32.1053C39.9577 32.5133 39.4254 32.7172 38.8496 32.7172C37.6824 32.7172 37.0988 32.0955 37.0988 30.8522ZM39.0877 29.8343C38.3376 29.8343 37.9625 30.1677 37.9625 30.8345C37.9625 31.5013 38.2582 31.8347 38.8496 31.8347C39.4472 31.8347 39.953 31.6347 40.367 31.2346V29.952C39.9406 29.8735 39.5141 29.8343 39.0877 29.8343Z" fill="white"/>
<path d="M47.1322 24.3039V32.7172H46.2684V24.3039H47.1322Z" fill="white"/>
<path d="M61.7784 32.5407C61.3738 32.6584 60.938 32.7172 60.4711 32.7172C58.7281 32.7172 57.8566 31.6484 57.8566 29.5107C57.8566 27.53 58.7281 26.5396 60.4711 26.5396C60.938 26.5396 61.3738 26.5984 61.7784 26.7161V27.5986C61.3738 27.4809 60.9224 27.4221 60.4244 27.4221C59.2883 27.4221 58.7203 28.1183 58.7203 29.5107C58.7203 31.06 59.2883 31.8347 60.4244 31.8347C60.9224 31.8347 61.3738 31.7759 61.7784 31.6582V32.5407Z" fill="white"/>
<path d="M67.0962 29.6049C67.0962 31.0914 67.5865 31.8347 68.5669 31.8347C69.5474 31.8347 70.0376 31.0914 70.0376 29.6049C70.0376 28.1497 69.5474 27.4221 68.5669 27.4221C67.5865 27.4221 67.0962 28.1497 67.0962 29.6049ZM66.2325 29.6284C66.2325 27.5692 67.0106 26.5396 68.5669 26.5396C70.1232 26.5396 70.9014 27.5692 70.9014 29.6284C70.9014 31.6837 70.1232 32.7113 68.5669 32.7113C67.0169 32.7113 66.2387 31.6837 66.2325 29.6284Z" fill="white"/>
<path d="M75.6543 32.7172V26.5396H76.2379L76.3826 27.3162C76.8526 26.7985 77.3646 26.5396 77.9187 26.5396C78.6283 26.5396 79.1123 26.822 79.3707 27.3868C79.9029 26.822 80.443 26.5396 80.9908 26.5396C82.1175 26.5396 82.6809 27.3221 82.6809 28.8871V32.7172H81.8172V28.8282C81.8172 27.9065 81.509 27.4456 80.8927 27.4456C80.4321 27.4456 80.001 27.7124 79.5995 28.2458V32.7172H78.7357V28.8459C78.7357 27.9124 78.4307 27.4456 77.8206 27.4456C77.3351 27.4456 76.9009 27.7124 76.518 28.2458V32.7172H75.6543Z" fill="white"/>
<path d="M88.5357 31.4582C88.8749 31.67 89.2531 31.7759 89.6702 31.7759C90.688 31.7759 91.1969 31.0051 91.1969 29.4637C91.1969 28.1183 90.6911 27.4456 89.6795 27.4456C89.2438 27.4456 88.8625 27.4927 88.5357 27.5868V31.4582ZM87.6719 26.7926C88.3225 26.6239 88.9948 26.5396 89.6889 26.5396C91.2607 26.5396 92.0467 27.5182 92.0467 29.4754C92.0467 31.6366 91.2561 32.7172 89.6749 32.7172C89.2827 32.7172 88.903 32.6192 88.5357 32.423V34.9529H87.6719V26.7926Z" fill="white"/>
<path d="M96.5708 30.8522C96.5708 29.5853 97.2338 28.9518 98.5597 28.9518C98.9861 28.9518 99.4126 28.991 99.839 29.0695V28.487C99.839 27.7771 99.3986 27.4221 98.5177 27.4221C98.0135 27.4221 97.4968 27.5202 96.9676 27.7163V26.8338C97.4968 26.6376 98.0135 26.5396 98.5177 26.5396C99.9744 26.5396 100.703 27.1789 100.703 28.4576V32.7172H100.217L99.9184 32.1053C99.4297 32.5133 98.8974 32.7172 98.3216 32.7172C97.1544 32.7172 96.5708 32.0955 96.5708 30.8522ZM98.5597 29.8343C97.8096 29.8343 97.4345 30.1677 97.4345 30.8345C97.4345 31.5013 97.7302 31.8347 98.3216 31.8347C98.9192 31.8347 99.425 31.6347 99.839 31.2346V29.952C99.4126 29.8735 98.9861 29.8343 98.5597 29.8343Z" fill="white"/>
<path d="M105.694 32.7172V26.5396H106.277L106.431 27.328C106.933 26.8024 107.483 26.5396 108.084 26.5396C109.307 26.5396 109.919 27.3064 109.919 28.84V32.7172H109.055V28.8224C109.055 27.9045 108.693 27.4456 107.967 27.4456C107.473 27.4456 107.003 27.7065 106.557 28.2281V32.7172H105.694Z" fill="white"/>
<path d="M114.326 26.5396H115.265L116.652 31.364L118.085 26.5396H119L116.964 32.8996C116.603 34.0214 116.062 34.7215 115.34 35L115.008 34.2293C115.556 33.9272 115.954 33.435 116.203 32.7525L114.326 26.5396Z" fill="white"/>
<path d="M10.1622 0.123553V2.94055H3.53433V7.38845H9.82889V10.3167H3.50492V17.7916H0.955716V0.123553H10.1622Z" fill="white"/>
<path d="M12.3683 17.7669V0.123553H18.7413C21.6042 0.123553 23.0357 1.70091 23.0357 4.85562C23.0357 6.98897 21.9212 8.75577 19.6923 10.156L24.1338 17.7916H20.8591L16.5941 10.0943V8.59927C19.0779 8.06388 20.3198 6.84894 20.3198 4.95446C20.3198 3.65304 19.7381 3.00233 18.5746 3.00233H15.0155V17.7669H12.3683Z" fill="white"/>
<path d="M26.8105 17.7916H24.1436L30.095 0.123553H32.8893L38.9682 17.7916H36.1739L34.5757 12.973H29.9185L30.8108 10.1313H33.6345L31.4285 3.49654L26.8105 17.7916Z" fill="white"/>
<path d="M51.8613 17.0503C50.652 17.6269 49.2794 17.9151 47.7433 17.9151C42.7103 17.9151 40.1938 14.8469 40.1938 8.71047C40.1938 2.90349 42.7103 0 47.7433 0C49.2794 0 50.652 0.28829 51.8613 0.864869V3.83013C50.652 3.17119 49.3448 2.84171 47.9394 2.84171C44.5732 2.84171 42.89 4.79796 42.89 8.71047C42.89 12.9524 44.5732 15.0734 47.9394 15.0734C49.3448 15.0734 50.652 14.744 51.8613 14.085V17.0503Z" fill="white"/>
<path d="M63.4797 0.123553V2.96527H59.4599V17.7916H56.8616V2.96527H52.8417V0.123553H63.4797Z" fill="white"/>
<path d="M66.4015 17.7916H63.7347L69.6861 0.123553H72.4804L78.5592 17.7916H75.7649L74.1668 12.973H69.5096L70.4018 10.1313H73.2255L71.0195 3.49654L66.4015 17.7916Z" fill="white"/>
<path d="M82.8733 0.123553V14.9499H88.4423V17.7916H80.275V0.123553H82.8733Z" fill="white"/>
<path d="M90.9032 10.8479V0.123553H93.5015V10.8479C93.5015 13.6649 94.6453 15.0734 96.9331 15.0734C99.2208 15.0734 100.365 13.6649 100.365 10.8479V0.123553H102.963V10.8479C102.963 15.5594 100.953 17.9151 96.9331 17.9151C92.9132 17.9151 90.9032 15.5594 90.9032 10.8479Z" fill="white"/>
<path d="M110.199 8.95757L104.679 0.123553H107.963L111.836 6.573L115.709 0.123553H118.993L113.483 8.95757L118.993 17.7916H115.709L111.836 11.3421L107.963 17.7916H104.679L110.199 8.95757Z" fill="white"/>
</svg>
