<svg width="24" height="26" viewBox="0 0 24 26" fill="none" xmlns="http://www.w3.org/2000/svg">
<g clip-path="url(#clip0)">
<path d="M12.0259 0.25C5.43116 0.25 0.072876 5.84382 0.072876 12.7285C0.072876 17.8489 2.99932 22.238 7.24471 24.1743C7.20348 23.3137 7.24471 22.238 7.45081 21.2913C7.69813 20.2586 8.97585 14.4927 8.97585 14.4927C8.97585 14.4927 8.60489 13.6751 8.60489 12.5133C8.60489 10.663 9.63532 9.28613 10.913 9.28613C11.9847 9.28613 12.5205 10.1467 12.5205 11.1794C12.5205 12.2982 11.8198 14.0193 11.4489 15.6114C11.1604 16.9453 12.0671 18.021 13.3449 18.021C15.6119 18.021 17.1369 14.9659 17.1369 11.3945C17.1369 8.64061 15.3645 6.61827 12.1496 6.61827C8.52243 6.61827 6.2555 9.45819 6.2555 12.5993C6.2555 13.675 6.54401 14.4496 7.03861 15.052C7.24471 15.3102 7.28594 15.4392 7.20348 15.7404C7.16225 15.9556 6.99739 16.515 6.95616 16.7301C6.8737 17.0313 6.62642 17.1604 6.33791 17.0313C4.648 16.2998 3.90607 14.4065 3.90607 12.255C3.90607 8.72664 6.75006 4.46675 12.4381 4.46675C17.0132 4.46675 20.0221 7.90911 20.0221 11.6096C20.0221 16.5149 17.4254 20.1724 13.5922 20.1724C12.3144 20.1724 11.078 19.4409 10.6658 18.6234C10.6658 18.6234 9.96506 21.5064 9.84142 22.0657C9.5941 23.0124 9.09949 24.0021 8.64611 24.7336C9.71778 25.0778 10.8719 25.2499 12.0259 25.2499C18.6207 25.2499 23.979 19.6561 23.979 12.7714C23.979 5.88676 18.6208 0.25 12.0259 0.25Z" fill="white"/>
</g>
<defs>
<clipPath id="clip0">
<rect width="23.9474" height="25" fill="white" transform="translate(0.0526123 0.25)"/>
</clipPath>
</defs>
</svg>
