<svg width="25" height="26" viewBox="0 0 25 26" fill="none" xmlns="http://www.w3.org/2000/svg">
<g clip-path="url(#clip0)">
<path d="M12.6579 25.25C19.2708 25.25 24.6316 19.6536 24.6316 12.75C24.6316 5.84644 19.2708 0.25 12.6579 0.25C6.045 0.25 0.684204 5.84644 0.684204 12.75C0.684204 19.6536 6.045 25.25 12.6579 25.25Z" fill="white"/>
<path d="M6.16318 12.4792L17.7078 7.83229C18.2436 7.6302 18.7116 7.96875 18.538 8.81458L18.539 8.81354L16.5733 18.4812C16.4276 19.1667 16.0375 19.3333 15.4917 19.0104L12.4983 16.7073L11.0544 18.1594C10.8948 18.326 10.7601 18.4667 10.4508 18.4667L10.6633 15.2865L16.2111 10.0542C16.4526 9.83229 16.1572 9.70729 15.8389 9.92812L8.98298 14.4344L6.02748 13.4719C5.38589 13.2594 5.37192 12.8021 6.16318 12.4792Z" fill="black"/>
</g>
<defs>
<clipPath id="clip0">
<rect width="23.9474" height="25" fill="white" transform="translate(0.684204 0.25)"/>
</clipPath>
</defs>
</svg>
