<svg width="143" height="35" viewBox="0 0 143 35" fill="none" xmlns="http://www.w3.org/2000/svg">
<path d="M4.23591 27.7986C3.817 27.5868 3.33824 27.4809 2.79963 27.4809C1.61395 27.4809 1.02111 28.1418 1.02111 29.4637C1.02111 31.0287 1.61395 31.8112 2.79963 31.8112C3.33824 31.8112 3.817 31.7347 4.23591 31.5817V27.7986ZM5.27385 32.3466C4.55945 32.5937 3.67861 32.7172 2.63132 32.7172C0.877105 32.7172 0 31.6464 0 29.5048C0 27.528 0.93134 26.5396 2.79402 26.5396C3.3027 26.5396 3.78334 26.6376 4.23591 26.8338V24.3039H5.27385V32.3466Z" fill="white"/>
<path d="M12.416 26.5396V32.7172H11.3781V26.5396H12.416ZM12.416 24.3039V25.3335H11.3781V24.3039H12.416Z" fill="white"/>
<path d="M22.4644 27.5868C22.109 27.4927 21.6696 27.4456 21.1459 27.4456C19.8929 27.4456 19.2664 28.1575 19.2664 29.5813C19.2664 31.0444 19.8592 31.7759 21.0449 31.7759C21.5835 31.7759 22.0567 31.67 22.4644 31.4582V27.5868ZM23.5023 32.7172C23.5023 34.2077 22.599 34.9529 20.7925 34.9529C20.0668 34.9529 19.4235 34.8549 18.8624 34.6588V33.7762C19.4347 33.9724 20.0818 34.0704 20.8037 34.0704C21.9108 34.0704 22.4644 33.6193 22.4644 32.7172V32.423C22.023 32.6192 21.548 32.7172 21.0393 32.7172C19.1766 32.7172 18.2453 31.6758 18.2453 29.5931C18.2453 27.5574 19.2271 26.5396 21.1908 26.5396C21.9875 26.5396 22.758 26.6239 23.5023 26.7926V32.7172Z" fill="white"/>
<path d="M30.6501 26.5396V32.7172H29.6121V26.5396H30.6501ZM30.6501 24.3039V25.3335H29.6121V24.3039H30.6501Z" fill="white"/>
<path d="M36.7599 25.5394H37.4107L37.6351 26.5396H39.2285V27.4221H37.7978V30.9698C37.7978 31.5464 38.0353 31.8347 38.5104 31.8347H39.2285V32.7172H38.2411C37.2536 32.7172 36.7599 32.1622 36.7599 31.0522V25.5394Z" fill="white"/>
<path d="M44.5809 30.8522C44.5809 29.5853 45.3776 28.9518 46.971 28.9518C47.4834 28.9518 47.9958 28.991 48.5082 29.0695V28.487C48.5082 27.7771 47.979 27.4221 46.9205 27.4221C46.3145 27.4221 45.6936 27.5202 45.0578 27.7163V26.8338C45.6936 26.6376 46.3145 26.5396 46.9205 26.5396C48.6709 26.5396 49.5462 27.1789 49.5462 28.4576V32.7172H48.9627L48.6036 32.1053C48.0164 32.5133 47.3768 32.7172 46.6848 32.7172C45.2822 32.7172 44.5809 32.0955 44.5809 30.8522ZM46.971 29.8343C46.0695 29.8343 45.6188 30.1677 45.6188 30.8345C45.6188 31.5013 45.9742 31.8347 46.6848 31.8347C47.403 31.8347 48.0108 31.6347 48.5082 31.2346V29.952C47.9958 29.8735 47.4834 29.8343 46.971 29.8343Z" fill="white"/>
<path d="M56.6378 24.3039V32.7172H55.5999V24.3039H56.6378Z" fill="white"/>
<path d="M74.2379 32.5407C73.7517 32.6584 73.228 32.7172 72.667 32.7172C70.5724 32.7172 69.5251 31.6484 69.5251 29.5107C69.5251 27.53 70.5724 26.5396 72.667 26.5396C73.228 26.5396 73.7517 26.5984 74.2379 26.7161V27.5986C73.7517 27.4809 73.2093 27.4221 72.6109 27.4221C71.2457 27.4221 70.563 28.1183 70.563 29.5107C70.563 31.06 71.2457 31.8347 72.6109 31.8347C73.2093 31.8347 73.7517 31.7759 74.2379 31.6582V32.5407Z" fill="white"/>
<path d="M80.6283 29.6049C80.6283 31.0914 81.2174 31.8347 82.3956 31.8347C83.5738 31.8347 84.1629 31.0914 84.1629 29.6049C84.1629 28.1497 83.5738 27.4221 82.3956 27.4221C81.2174 27.4221 80.6283 28.1497 80.6283 29.6049ZM79.5903 29.6284C79.5903 27.5692 80.5254 26.5396 82.3956 26.5396C84.2657 26.5396 85.2008 27.5692 85.2008 29.6284C85.2008 31.6837 84.2657 32.7113 82.3956 32.7113C80.5329 32.7113 79.5978 31.6837 79.5903 29.6284Z" fill="white"/>
<path d="M90.9123 32.7172V26.5396H91.6136L91.7875 27.3162C92.3523 26.7985 92.9676 26.5396 93.6334 26.5396C94.4862 26.5396 95.0678 26.822 95.3782 27.3868C96.0178 26.822 96.6668 26.5396 97.3251 26.5396C98.6791 26.5396 99.356 27.3221 99.356 28.8871V32.7172H98.3181V28.8282C98.3181 27.9065 97.9478 27.4456 97.2072 27.4456C96.6537 27.4456 96.1356 27.7124 95.6531 28.2458V32.7172H94.6152V28.8459C94.6152 27.9124 94.2486 27.4456 93.5155 27.4456C92.9321 27.4456 92.4103 27.7124 91.9502 28.2458V32.7172H90.9123Z" fill="white"/>
<path d="M106.392 31.4582C106.799 31.67 107.254 31.7759 107.755 31.7759C108.978 31.7759 109.59 31.0051 109.59 29.4637C109.59 28.1183 108.982 27.4456 107.766 27.4456C107.243 27.4456 106.784 27.4927 106.392 27.5868V31.4582ZM105.354 26.7926C106.135 26.6239 106.943 26.5396 107.777 26.5396C109.666 26.5396 110.611 27.5182 110.611 29.4754C110.611 31.6366 109.661 32.7172 107.761 32.7172C107.289 32.7172 106.833 32.6192 106.392 32.423V34.9529H105.354V26.7926Z" fill="white"/>
<path d="M116.047 30.8522C116.047 29.5853 116.844 28.9518 118.437 28.9518C118.95 28.9518 119.462 28.991 119.975 29.0695V28.487C119.975 27.7771 119.445 27.4221 118.387 27.4221C117.781 27.4221 117.16 27.5202 116.524 27.7163V26.8338C117.16 26.6376 117.781 26.5396 118.387 26.5396C120.137 26.5396 121.013 27.1789 121.013 28.4576V32.7172H120.429L120.07 32.1053C119.483 32.5133 118.843 32.7172 118.151 32.7172C116.749 32.7172 116.047 32.0955 116.047 30.8522ZM118.437 29.8343C117.536 29.8343 117.085 30.1677 117.085 30.8345C117.085 31.5013 117.441 31.8347 118.151 31.8347C118.869 31.8347 119.477 31.6347 119.975 31.2346V29.952C119.462 29.8735 118.95 29.8343 118.437 29.8343Z" fill="white"/>
<path d="M127.01 32.7172V26.5396H127.711L127.897 27.328C128.499 26.8024 129.161 26.5396 129.883 26.5396C131.353 26.5396 132.088 27.3064 132.088 28.84V32.7172H131.05V28.8224C131.05 27.9045 130.614 27.4456 129.742 27.4456C129.148 27.4456 128.583 27.7065 128.048 28.2281V32.7172H127.01Z" fill="white"/>
<path d="M137.384 26.5396H138.512L140.178 31.364L141.9 26.5396H143L140.554 32.8996C140.12 34.0214 139.469 34.7215 138.601 35L138.203 34.2293C138.861 33.9272 139.34 33.435 139.639 32.7525L137.384 26.5396Z" fill="white"/>
<path d="M12.2118 0.123553V2.94055H4.24714V7.38845H11.8112V10.3167H4.21179V17.7916H1.14847V0.123553H12.2118Z" fill="white"/>
<path d="M14.8627 17.7669V0.123553H22.521C25.9614 0.123553 27.6816 1.70091 27.6816 4.85562C27.6816 6.98897 26.3423 8.75577 23.6639 10.156L29.0011 17.7916H25.066L19.9408 10.0943V8.59927C22.9256 8.06387 24.4179 6.84894 24.4179 4.95446C24.4179 3.65304 23.7189 3.00233 22.3207 3.00233H18.0439V17.7669H14.8627Z" fill="white"/>
<path d="M32.2176 17.7916H29.0129L36.1646 0.123553H39.5225L46.8273 17.7916H43.4695L41.549 12.973H35.9525L37.0247 10.1313H40.4179L37.767 3.49654L32.2176 17.7916Z" fill="white"/>
<path d="M62.3207 17.0503C60.8676 17.6269 59.2181 17.9151 57.3722 17.9151C51.3241 17.9151 48.3001 14.8469 48.3001 8.71047C48.3001 2.90349 51.3241 0 57.3722 0C59.2181 0 60.8676 0.28829 62.3207 0.864869V3.83013C60.8676 3.17119 59.2966 2.84171 57.6079 2.84171C53.5627 2.84171 51.5401 4.79796 51.5401 8.71047C51.5401 12.9524 53.5627 15.0734 57.6079 15.0734C59.2966 15.0734 60.8676 14.744 62.3207 14.085V17.0503Z" fill="white"/>
<path d="M76.2824 0.123553V2.96527H71.4518V17.7916H68.3295V2.96527H63.4989V0.123553H76.2824Z" fill="white"/>
<path d="M79.7934 17.7916H76.5887L83.7404 0.123553H87.0983L94.4031 17.7916H91.0452L89.1248 12.973H83.5283L84.6005 10.1313H87.9937L85.3427 3.49654L79.7934 17.7916Z" fill="white"/>
<path d="M99.5872 0.123553V14.9499H106.279V17.7916H96.465V0.123553H99.5872Z" fill="white"/>
<path d="M109.237 10.8479V0.123553H112.359V10.8479C112.359 13.6649 113.733 15.0734 116.483 15.0734C119.232 15.0734 120.606 13.6649 120.606 10.8479V0.123553H123.729V10.8479C123.729 15.5594 121.313 17.9151 116.483 17.9151C111.652 17.9151 109.237 15.5594 109.237 10.8479Z" fill="white"/>
<path d="M132.424 8.95757L125.79 0.123553H129.737L134.391 6.573L139.045 0.123553H142.992L136.371 8.95757L142.992 17.7916H139.045L134.391 11.3421L129.737 17.7916H125.79L132.424 8.95757Z" fill="white"/>
</svg>
