<svg width="25" height="25" viewBox="0 0 25 25" fill="none" xmlns="http://www.w3.org/2000/svg">
<path d="M12.4989 0C5.6142 0 0.0203857 5.59382 0.0203857 12.4785C0.0203857 17.5989 3.07547 21.988 7.50747 23.9243C7.46443 23.0637 7.50747 21.988 7.72262 21.0413C7.98082 20.0086 9.3147 14.2427 9.3147 14.2427C9.3147 14.2427 8.92743 13.4251 8.92743 12.2633C8.92743 10.413 10.0032 9.03613 11.337 9.03613C12.4558 9.03613 13.0152 9.8967 13.0152 10.9294C13.0152 12.0482 12.2837 13.7693 11.8964 15.3614C11.5952 16.6953 12.5418 17.771 13.8758 17.771C16.2424 17.771 17.8345 14.7159 17.8345 11.1445C17.8345 8.39061 15.9842 6.36827 12.6279 6.36827C8.84135 6.36827 6.47478 9.20819 6.47478 12.3493C6.47478 13.425 6.77597 14.1996 7.29231 14.802C7.50747 15.0602 7.55051 15.1892 7.46443 15.4904C7.42139 15.7056 7.24927 16.265 7.20623 16.4801C7.12015 16.7813 6.862 16.9104 6.56081 16.7813C4.79662 16.0498 4.02207 14.1565 4.02207 12.005C4.02207 8.47664 6.99107 4.21675 12.9291 4.21675C17.7053 4.21675 20.8465 7.65911 20.8465 11.3596C20.8465 16.2649 18.1357 19.9224 14.134 19.9224C12.8 19.9224 11.5092 19.1909 11.0789 18.3734C11.0789 18.3734 10.3474 21.2564 10.2183 21.8157C9.96012 22.7624 9.44377 23.7521 8.97047 24.4836C10.0892 24.8278 11.294 24.9999 12.4989 24.9999C19.3835 24.9999 24.9773 19.4061 24.9773 12.5214C24.9773 5.63676 19.3836 0 12.4989 0Z" fill="white"/>
</svg>
